<svg width="15" height="14" viewBox="0 0 15 14" fill="none" xmlns="http://www.w3.org/2000/svg">
<path d="M0.833984 1H4.83398C5.54123 1 6.21951 1.28095 6.7196 1.78105C7.2197 2.28115 7.50065 2.95942 7.50065 3.66667V13C7.50065 12.4696 7.28994 11.9609 6.91486 11.5858C6.53979 11.2107 6.03108 11 5.50065 11H0.833984V1Z" stroke="#36C5E2" stroke-width="1.5" stroke-linecap="round" stroke-linejoin="round"/>
<path d="M14.1667 1H10.1667C9.45942 1 8.78115 1.28095 8.28105 1.78105C7.78095 2.28115 7.5 2.95942 7.5 3.66667V13C7.5 12.4696 7.71071 11.9609 8.08579 11.5858C8.46086 11.2107 8.96957 11 9.5 11H14.1667V1Z" stroke="#36C5E2" stroke-width="1.5" stroke-linecap="round" stroke-linejoin="round"/>
</svg>
