<svg width="213" height="167" viewBox="0 0 213 167" fill="none" xmlns="http://www.w3.org/2000/svg">
<path d="M193.715 69.4275V63.4941C193.715 62.9338 193.604 62.3791 193.39 61.8615C193.176 61.3439 192.861 60.8736 192.465 60.4774C192.069 60.0813 191.599 59.7671 191.081 59.5527C190.564 59.3383 190.009 59.2279 189.449 59.2279H174.391C173.259 59.2279 172.174 58.7785 171.374 57.9784C170.574 57.1783 170.124 56.0932 170.124 54.9618V49.0283C170.124 48.4681 170.235 47.9133 170.449 47.3957C170.664 46.8781 170.978 46.4078 171.374 46.0117C171.77 45.6156 172.24 45.3013 172.758 45.0869C173.276 44.8725 173.83 44.7622 174.391 44.7622H174.866C175.426 44.7622 175.981 44.6518 176.499 44.4374C177.016 44.223 177.486 43.9088 177.883 43.5126C178.279 43.1165 178.593 42.6462 178.807 42.1286C179.022 41.611 179.132 41.0563 179.132 40.496V34.5626C179.132 33.4311 178.683 32.346 177.883 31.546C177.083 30.7459 175.997 30.2964 174.866 30.2964L47.0369 30.2964C45.9055 30.2964 44.8204 30.7459 44.0203 31.5459C43.2203 32.346 42.7708 33.4311 42.7708 34.5625V40.496C42.7708 41.0562 42.8811 41.611 43.0955 42.1286C43.3099 42.6462 43.6242 43.1165 44.0203 43.5126C44.4165 43.9088 44.8868 44.223 45.4043 44.4374C45.9219 44.6518 46.4767 44.7621 47.0369 44.7621C48.1684 44.7621 49.2535 45.2116 50.0536 46.0117C50.8536 46.8117 51.3031 47.8968 51.3031 49.0283V54.9617C51.3031 55.522 51.1927 56.0767 50.9783 56.5943C50.7639 57.1119 50.4497 57.5822 50.0536 57.9783C49.6574 58.3745 49.1871 58.6887 48.6695 58.9031C48.1519 59.1175 47.5972 59.2279 47.0369 59.2279H30.5394C29.9791 59.2279 29.4244 59.3382 28.9068 59.5526C28.3892 59.767 27.9189 60.0813 27.5227 60.4774C27.1266 60.8736 26.8123 61.3438 26.5979 61.8614C26.3835 62.379 26.2732 62.9338 26.2732 63.494V69.4275C26.2732 69.9877 26.3836 70.5425 26.5979 71.0601C26.8123 71.5777 27.1266 72.048 27.5227 72.4441C27.9189 72.8402 28.3892 73.1545 28.9068 73.3689C29.4244 73.5833 29.9791 73.6936 30.5394 73.6936H37.0128C38.1442 73.6936 39.2293 74.1431 40.0294 74.9431C40.8294 75.7432 41.2789 76.8283 41.2789 77.9598V83.8932C41.2789 85.0247 40.8294 86.1098 40.0294 86.9098C39.2293 87.7099 38.1442 88.1594 37.0127 88.1594H36.9971C35.8656 88.1594 34.7805 88.6088 33.9805 89.4089C33.1804 90.209 32.731 91.2941 32.731 92.4255V98.359C32.731 98.9192 32.8413 99.4739 33.0557 99.9915C33.2701 100.509 33.5843 100.979 33.9805 101.376C34.3766 101.772 34.8469 102.086 35.3645 102.3C35.8821 102.515 36.4369 102.625 36.9971 102.625H37.9337C39.0651 102.625 40.1502 103.075 40.9503 103.875C41.7504 104.675 42.1998 105.76 42.1998 106.891V112.825C42.1998 113.385 42.0895 113.94 41.8751 114.457C41.6607 114.975 41.3464 115.445 40.9503 115.841C40.5541 116.238 40.0838 116.552 39.5663 116.766C39.0487 116.981 38.4939 117.091 37.9337 117.091H22.563C22.0027 117.091 21.448 117.201 20.9304 117.416C20.4128 117.63 19.9425 117.944 19.5463 118.34C19.1502 118.737 18.836 119.207 18.6216 119.724C18.4072 120.242 18.2968 120.797 18.2968 121.357V127.29C18.2968 127.851 18.4072 128.405 18.6216 128.923C18.8359 129.441 19.1502 129.911 19.5463 130.307C19.9425 130.703 20.4128 131.017 20.9304 131.232C21.448 131.446 22.0027 131.557 22.563 131.557L177.156 131.557C178.288 131.557 179.373 131.107 180.173 130.307C180.973 129.507 181.423 128.422 181.423 127.291V121.357C181.423 120.797 181.312 120.242 181.098 119.724C180.883 119.207 180.569 118.737 180.173 118.34C179.777 117.944 179.307 117.63 178.789 117.416C178.271 117.201 177.717 117.091 177.156 117.091H173.457C172.326 117.091 171.241 116.641 170.441 115.841C169.641 115.041 169.191 113.956 169.191 112.825V106.891C169.191 105.76 169.641 104.675 170.441 103.875C171.241 103.075 172.326 102.625 173.457 102.625H182.179C182.739 102.625 183.294 102.515 183.812 102.3C184.329 102.086 184.8 101.772 185.196 101.376C185.592 100.979 185.906 100.509 186.121 99.9916C186.335 99.474 186.445 98.9192 186.445 98.359V92.4256C186.445 91.8653 186.335 91.3106 186.121 90.793C185.906 90.2754 185.592 89.8051 185.196 89.409C184.8 89.0128 184.329 88.6986 183.812 88.4842C183.294 88.2698 182.739 88.1594 182.179 88.1594H179.533C178.973 88.1594 178.418 88.0491 177.901 87.8347C177.383 87.6203 176.913 87.306 176.517 86.9099C176.121 86.5138 175.806 86.0435 175.592 85.5259C175.378 85.0083 175.267 84.4535 175.267 83.8933V77.9598C175.267 77.3996 175.378 76.8448 175.592 76.3272C175.806 75.8096 176.121 75.3393 176.517 74.9432C176.913 74.547 177.383 74.2328 177.901 74.0184C178.418 73.804 178.973 73.6937 179.533 73.6937H189.449C190.009 73.6937 190.564 73.5833 191.081 73.3689C191.599 73.1545 192.069 72.8403 192.465 72.4441C192.861 72.048 193.176 71.5777 193.39 71.0601C193.604 70.5425 193.715 69.9878 193.715 69.4275Z" fill="#EEF3F5"/>
<path d="M63.729 85.3337H86.2991C86.6594 85.3337 86.9514 85.0417 86.9514 84.6814V74.7857C86.9514 74.4254 86.6594 74.1333 86.2991 74.1333H63.729C63.3687 74.1333 63.0766 74.4254 63.0766 74.7857V84.6814C63.0766 85.0417 63.3687 85.3337 63.729 85.3337Z" fill="#A0B7C5"/>
<path d="M75.6669 72.1143H98.2371C98.5973 72.1143 98.8894 71.8222 98.8894 71.4619V61.5662C98.8894 61.2059 98.5973 60.9138 98.2371 60.9138H75.6669C75.3067 60.9138 75.0146 61.2059 75.0146 61.5662V71.4619C75.0146 71.8222 75.3067 72.1143 75.6669 72.1143Z" fill="#A0B7C5"/>
<path d="M49.7733 72.1143H72.3434C72.7037 72.1143 72.9958 71.8222 72.9958 71.4619V61.5662C72.9958 61.2059 72.7037 60.9138 72.3434 60.9138H49.7733C49.413 60.9138 49.121 61.2059 49.121 61.5662V71.4619C49.121 71.8222 49.413 72.1143 49.7733 72.1143Z" fill="#A0B7C5"/>
<path d="M153.665 93.2253H131.095C130.735 93.2253 130.443 93.5174 130.443 93.8777V103.773C130.443 104.134 130.735 104.426 131.095 104.426H153.665C154.025 104.426 154.317 104.134 154.317 103.773V93.8777C154.317 93.5174 154.025 93.2253 153.665 93.2253Z" fill="#A0B7C5"/>
<path d="M141.728 106.445H119.158C118.798 106.445 118.505 106.737 118.505 107.097V116.993C118.505 117.353 118.798 117.645 119.158 117.645H141.728C142.088 117.645 142.38 117.353 142.38 116.993V107.097C142.38 106.737 142.088 106.445 141.728 106.445Z" fill="#A0B7C5"/>
<path d="M167.622 106.445H145.051C144.691 106.445 144.399 106.737 144.399 107.097V116.993C144.399 117.353 144.691 117.645 145.051 117.645H167.622C167.982 117.645 168.274 117.353 168.274 116.993V107.097C168.274 106.737 167.982 106.445 167.622 106.445Z" fill="#A0B7C5"/>
<path d="M110.518 123.564V127.748C110.518 129.363 109.876 130.913 108.734 132.055C107.591 133.198 106.042 133.84 104.426 133.84H83.9601C82.3444 133.84 80.7949 134.482 79.6524 135.624C78.51 136.766 77.8682 138.316 77.8682 139.932C77.8682 141.547 77.2263 143.097 76.0839 144.239C74.9414 145.382 73.3919 146.024 71.7763 146.024H55.97C54.3544 146.024 52.8049 145.382 51.6624 144.239C50.52 143.097 49.8781 141.547 49.8781 139.932V129.134C49.8781 128.334 49.7206 127.542 49.4144 126.803C49.1083 126.064 48.6595 125.392 48.0938 124.827C47.5282 124.261 46.8566 123.812 46.1175 123.506C45.3784 123.2 44.5862 123.042 43.7862 123.042H24.8203" stroke="#9E7752" stroke-width="1.30469" stroke-miterlimit="10" stroke-linecap="round"/>
<path d="M141.106 20.9766H80.1515C78.8905 20.9766 77.8683 21.9988 77.8683 23.2598V82.336C77.8683 83.597 78.8905 84.6192 80.1515 84.6192H141.106C142.367 84.6192 143.39 83.597 143.39 82.336V23.2598C143.39 21.9988 142.367 20.9766 141.106 20.9766Z" fill="#EFC089"/>
<path d="M124.948 84.3455H96.0881C95.7421 84.3455 95.4103 84.4829 95.1656 84.7276C94.9209 84.9723 94.7834 85.3041 94.7834 85.6501V98.5404C94.7834 98.8864 94.9209 99.2183 95.1656 99.4629C95.4103 99.7076 95.7421 99.8451 96.0881 99.8451H100.484C100.83 99.8451 101.162 99.9825 101.406 100.227C101.651 100.472 101.788 100.804 101.788 101.15V112.866C101.788 113.212 101.926 113.544 102.171 113.788C102.415 114.033 102.747 114.171 103.093 114.171H117.943C118.289 114.171 118.621 114.033 118.865 113.788C119.11 113.544 119.247 113.212 119.247 112.866V101.15C119.247 100.804 119.385 100.472 119.63 100.227C119.874 99.9825 120.206 99.8451 120.552 99.8451H124.948C125.294 99.8451 125.626 99.7076 125.87 99.4629C126.115 99.2183 126.253 98.8864 126.253 98.5404V85.6501C126.253 85.4788 126.219 85.3092 126.153 85.1509C126.088 84.9926 125.992 84.8487 125.87 84.7276C125.749 84.6064 125.605 84.5103 125.447 84.4448C125.289 84.3792 125.119 84.3455 124.948 84.3455Z" fill="#562121"/>
<path d="M121.262 109.474H99.7737C98.4767 109.474 97.4253 110.525 97.4253 111.822C97.4253 113.119 98.4767 114.171 99.7737 114.171H121.262C122.559 114.171 123.61 113.119 123.61 111.822C123.61 110.525 122.559 109.474 121.262 109.474Z" fill="#EFC089"/>
<path d="M101.652 114.171H119.383V116.607C119.383 117.207 119.145 117.782 118.721 118.205C118.297 118.629 117.722 118.868 117.123 118.868H103.913C103.616 118.868 103.322 118.809 103.048 118.695C102.774 118.582 102.524 118.415 102.315 118.205C102.105 117.996 101.938 117.746 101.825 117.472C101.711 117.198 101.652 116.904 101.652 116.607V114.171H101.652Z" fill="#9E7752"/>
<path d="M105.194 118.867H115.842V122.937C115.842 124.349 115.281 125.703 114.283 126.702C113.284 127.7 111.93 128.261 110.518 128.261C109.106 128.261 107.752 127.7 106.753 126.702C105.755 125.703 105.194 124.349 105.194 122.937V118.867Z" fill="#562121"/>
<path d="M118.02 84.3455V70.3723" stroke="#9E7752" stroke-width="3.26172" stroke-miterlimit="10"/>
<path d="M103.016 84.3455V70.3723" stroke="#9E7752" stroke-width="3.26172" stroke-miterlimit="10"/>
<path d="M110.629 68.2975C119.189 68.2975 126.129 61.358 126.129 52.7978C126.129 44.2375 119.189 37.2981 110.629 37.2981C102.069 37.2981 95.1295 44.2375 95.1295 52.7978C95.1295 61.358 102.069 68.2975 110.629 68.2975Z" fill="#562121"/>
<path d="M98.6888 56.7288C98.6879 53.8242 99.5035 50.9778 101.042 48.5144C102.581 46.051 104.782 44.0697 107.393 42.7967C110.003 41.5236 112.919 41.01 115.808 41.3144C118.697 41.6189 121.441 42.7291 123.73 44.5184C122.523 42.6077 120.913 40.984 119.012 39.7611C117.111 38.5383 114.966 37.746 112.727 37.4397C110.488 37.1333 108.209 37.3204 106.05 37.9878C103.891 38.6553 101.904 39.7868 100.228 41.3032C98.5524 42.8197 97.2286 44.6842 96.3496 46.7662C95.4706 48.8483 95.0575 51.0973 95.1395 53.3558C95.2214 55.6143 95.7963 57.8275 96.8238 59.8404C97.8514 61.8532 99.3068 63.617 101.088 65.008C99.5175 62.5324 98.6853 59.6605 98.6888 56.7288Z" fill="#9E7752"/>
<g filter="url(#filter0_d_1685_4730)">
<path d="M103.127 56.5545C104.619 56.5545 105.828 55.3453 105.828 53.8538C105.828 52.3622 104.619 51.1531 103.127 51.1531C101.635 51.1531 100.426 52.3622 100.426 53.8538C100.426 55.3453 101.635 56.5545 103.127 56.5545Z" fill="#9E7752"/>
</g>
<g filter="url(#filter1_d_1685_4730)">
<path d="M118.131 56.5545C119.622 56.5545 120.832 55.3453 120.832 53.8538C120.832 52.3622 119.622 51.1531 118.131 51.1531C116.639 51.1531 115.43 52.3622 115.43 53.8538C115.43 55.3453 116.639 56.5545 118.131 56.5545Z" fill="#9E7752"/>
</g>
<path d="M151.216 42.8171H161.752" stroke="#A0B7C5" stroke-width="0.978516" stroke-miterlimit="10" stroke-linecap="round"/>
<path d="M151.216 45.854H161.752" stroke="#A0B7C5" stroke-width="0.978516" stroke-miterlimit="10" stroke-linecap="round"/>
<path d="M151.216 48.8909H161.752" stroke="#A0B7C5" stroke-width="0.978516" stroke-miterlimit="10" stroke-linecap="round"/>
<path d="M58.5756 39.7803H69.1119" stroke="#A0B7C5" stroke-width="0.978516" stroke-miterlimit="10" stroke-linecap="round"/>
<path d="M58.5756 42.8171H69.1119" stroke="#A0B7C5" stroke-width="0.978516" stroke-miterlimit="10" stroke-linecap="round"/>
<path d="M58.5756 45.854H69.1119" stroke="#A0B7C5" stroke-width="0.978516" stroke-miterlimit="10" stroke-linecap="round"/>
<path d="M71.8923 101.191H82.4287" stroke="#A0B7C5" stroke-width="0.978516" stroke-miterlimit="10" stroke-linecap="round"/>
<path d="M71.8923 104.228H82.4287" stroke="#A0B7C5" stroke-width="0.978516" stroke-miterlimit="10" stroke-linecap="round"/>
<path d="M71.8923 107.264H82.4287" stroke="#A0B7C5" stroke-width="0.978516" stroke-miterlimit="10" stroke-linecap="round"/>
<defs>
<filter id="filter0_d_1685_4730" x="96.4263" y="51.1531" width="13.4014" height="13.4014" filterUnits="userSpaceOnUse" color-interpolation-filters="sRGB">
<feFlood flood-opacity="0" result="BackgroundImageFix"/>
<feColorMatrix in="SourceAlpha" type="matrix" values="0 0 0 0 0 0 0 0 0 0 0 0 0 0 0 0 0 0 127 0" result="hardAlpha"/>
<feOffset dy="4"/>
<feGaussianBlur stdDeviation="2"/>
<feComposite in2="hardAlpha" operator="out"/>
<feColorMatrix type="matrix" values="0 0 0 0 0 0 0 0 0 0 0 0 0 0 0 0 0 0 0.25 0"/>
<feBlend mode="normal" in2="BackgroundImageFix" result="effect1_dropShadow_1685_4730"/>
<feBlend mode="normal" in="SourceGraphic" in2="effect1_dropShadow_1685_4730" result="shape"/>
</filter>
<filter id="filter1_d_1685_4730" x="111.43" y="51.1531" width="13.4014" height="13.4014" filterUnits="userSpaceOnUse" color-interpolation-filters="sRGB">
<feFlood flood-opacity="0" result="BackgroundImageFix"/>
<feColorMatrix in="SourceAlpha" type="matrix" values="0 0 0 0 0 0 0 0 0 0 0 0 0 0 0 0 0 0 127 0" result="hardAlpha"/>
<feOffset dy="4"/>
<feGaussianBlur stdDeviation="2"/>
<feComposite in2="hardAlpha" operator="out"/>
<feColorMatrix type="matrix" values="0 0 0 0 0 0 0 0 0 0 0 0 0 0 0 0 0 0 0.25 0"/>
<feBlend mode="normal" in2="BackgroundImageFix" result="effect1_dropShadow_1685_4730"/>
<feBlend mode="normal" in="SourceGraphic" in2="effect1_dropShadow_1685_4730" result="shape"/>
</filter>
</defs>
</svg>
