<svg width="16" height="17" viewBox="0 0 16 17" fill="none" xmlns="http://www.w3.org/2000/svg">
<path fill-rule="evenodd" clip-rule="evenodd" d="M6.25093 13.8519L12.1085 6.27696C12.4269 5.86847 12.5401 5.3962 12.4339 4.91533C12.342 4.47817 12.0731 4.06251 11.6699 3.74719L10.6866 2.96604C9.83057 2.28523 8.76941 2.35689 8.16102 3.13804L7.5031 3.99157C7.41821 4.09835 7.43943 4.25601 7.54554 4.34201C7.54554 4.34201 9.20802 5.67497 9.2434 5.70364C9.35659 5.81114 9.44148 5.95447 9.4627 6.12646C9.49807 6.46329 9.26462 6.77861 8.91797 6.82161C8.75526 6.84311 8.59963 6.79295 8.48644 6.69978L6.73906 5.30948C6.65417 5.2457 6.52683 5.25932 6.45609 5.34532L2.30343 10.7202C2.0346 11.057 1.94263 11.4942 2.0346 11.917L2.56518 14.2174C2.59348 14.3393 2.69959 14.4253 2.82693 14.4253L5.16148 14.3966C5.58594 14.3894 5.98211 14.1959 6.25093 13.8519ZM9.51979 13.1355H13.3265C13.6979 13.1355 14 13.4415 14 13.8178C14 14.1947 13.6979 14.5 13.3265 14.5H9.51979C9.14839 14.5 8.84631 14.1947 8.84631 13.8178C8.84631 13.4415 9.14839 13.1355 9.51979 13.1355Z" fill="#083652"/>
</svg>
