<svg width="16" height="17" viewBox="0 0 16 17" fill="none" xmlns="http://www.w3.org/2000/svg">
<g id="Iconly/Bold/Filter">
<g id="Filter">
<path id="Filter_2" fill-rule="evenodd" clip-rule="evenodd" d="M5.38826 5.19377C5.38826 6.40584 4.40639 7.38826 3.19413 7.38826C1.98257 7.38826 1 6.40584 1 5.19377C1 3.98241 1.98257 3 3.19413 3C4.40639 3 5.38826 3.98241 5.38826 5.19377ZM14.6767 4.66595C15.4061 4.66595 15.999 5.1085 15.999 5.65295C15.999 6.19812 15.4061 6.64067 14.6767 6.64067H8.90568C8.17529 6.64067 7.58239 6.19812 7.58239 5.65295C7.58239 5.1085 8.17529 4.66595 8.90568 4.66595H14.6767ZM2.3233 11.2837H8.09431C8.82471 11.2837 9.41761 11.7261 9.41761 12.2711C9.41761 12.8153 8.82471 13.2584 8.09431 13.2584H2.3233C1.5929 13.2584 1 12.8153 1 12.2711C1 11.7261 1.5929 11.2837 2.3233 11.2837ZM13.8059 13.9706C15.0181 13.9706 16 12.9882 16 11.7769C16 10.5648 15.0181 9.58239 13.8059 9.58239C12.5943 9.58239 11.6117 10.5648 11.6117 11.7769C11.6117 12.9882 12.5943 13.9706 13.8059 13.9706Z" fill="#083652"/>
</g>
</g>
</svg>
