<svg width="25" height="24" viewBox="0 0 25 24" fill="none" xmlns="http://www.w3.org/2000/svg">
<path d="M4.32222 15.6333V20.9889C4.32515 21.2581 4.43414 21.5152 4.62552 21.7045C4.81691 21.8938 5.07525 22 5.34444 22H11.5889V15.6333H4.32222ZM13.4111 22H19.6556C19.9248 22 20.1831 21.8938 20.3745 21.7045C20.5659 21.5152 20.6749 21.2581 20.6778 20.9889V15.6333H13.4111V22ZM21.5 6.54445H19.4556C19.665 6.11913 19.7751 5.65184 19.7778 5.17778C19.7748 4.33396 19.4376 3.5257 18.8399 2.93007C18.2421 2.33444 17.4327 1.99999 16.5889 2C15.7074 2.0418 14.8557 2.33212 14.1321 2.83741C13.4086 3.3427 12.8428 4.04235 12.5 4.85556C12.1572 4.04235 11.5914 3.3427 10.8679 2.83741C10.1443 2.33212 9.29262 2.0418 8.41111 2C7.56729 1.99999 6.75786 2.33444 6.16015 2.93007C5.56243 3.5257 5.22516 4.33396 5.22222 5.17778C5.22486 5.65184 5.33503 6.11913 5.54444 6.54445H3.5C2.94444 6.54445 2.5 7.2 2.5 8V12.3667C2.5 13.1667 2.94444 13.8222 3.5 13.8222H11.5889V6.54445H13.4111V13.8222H21.5C22.0556 13.8222 22.5 13.1667 22.5 12.3667V8C22.5 7.2 22.0556 6.54445 21.5 6.54445ZM8.41111 6.54445C8.22203 6.56155 8.03146 6.53906 7.85155 6.47843C7.67164 6.4178 7.50634 6.32035 7.36618 6.1923C7.22602 6.06424 7.11408 5.90839 7.03749 5.73467C6.9609 5.56095 6.92134 5.37318 6.92134 5.18333C6.92134 4.99348 6.9609 4.80571 7.03749 4.632C7.11408 4.45828 7.22602 4.30243 7.36618 4.17437C7.50634 4.04631 7.67164 3.94886 7.85155 3.88823C8.03146 3.8276 8.22203 3.80512 8.41111 3.82222C9.96667 3.82222 10.8444 5.42222 11.2778 6.54445H8.41111ZM16.5889 6.54445H13.7222C14.1556 5.43333 15.0333 3.82222 16.5889 3.82222C16.778 3.80512 16.9685 3.8276 17.1484 3.88823C17.3284 3.94886 17.4937 4.04631 17.6338 4.17437C17.774 4.30243 17.8859 4.45828 17.9625 4.632C18.0391 4.80571 18.0787 4.99348 18.0787 5.18333C18.0787 5.37318 18.0391 5.56095 17.9625 5.73467C17.8859 5.90839 17.774 6.06424 17.6338 6.1923C17.4937 6.32035 17.3284 6.4178 17.1484 6.47843C16.9685 6.53906 16.778 6.56155 16.5889 6.54445Z" fill="#083652"/>
</svg>
