<svg width="25" height="24" viewBox="0 0 25 24" fill="none" xmlns="http://www.w3.org/2000/svg">
<path d="M18.7 11.8V18.8C18.7 19.9046 17.8046 20.8 16.7 20.8H6.30005C5.19548 20.8 4.30005 19.9046 4.30005 18.8V11.8" stroke="#687075" stroke-width="1.2" stroke-linecap="round" stroke-linejoin="round"/>
<path d="M19.5 7.3H3.5C2.94772 7.3 2.5 7.74772 2.5 8.3V10.8C2.5 11.3523 2.94772 11.8 3.5 11.8H19.5C20.0523 11.8 20.5 11.3523 20.5 10.8V8.3C20.5 7.74772 20.0523 7.3 19.5 7.3Z" stroke="#687075" stroke-width="1.2" stroke-linecap="round" stroke-linejoin="round"/>
<path d="M11.8937 19.9058L11.95 8.2" stroke="#687075" stroke-width="1.2" stroke-linecap="round" stroke-linejoin="round"/>
<path d="M11.5 6.5H7.44995C6.85321 6.5 6.28092 6.26295 5.85896 5.84099C5.437 5.41903 5.19995 4.84674 5.19995 4.25C5.19995 3.65326 5.437 3.08097 5.85896 2.65901C6.28092 2.23705 6.85321 2 7.44995 2C10.6 2 11.5 6.5 11.5 6.5Z" stroke="#687075" stroke-width="1.2" stroke-linecap="round" stroke-linejoin="round"/>
<path d="M11.5 6.5H15.55C16.1467 6.5 16.719 6.26295 17.141 5.84099C17.5629 5.41903 17.8 4.84674 17.8 4.25C17.8 3.65326 17.5629 3.08097 17.141 2.65901C16.719 2.23705 16.1467 2 15.55 2C12.4 2 11.5 6.5 11.5 6.5Z" stroke="#687075" stroke-width="1.2" stroke-linecap="round" stroke-linejoin="round"/>
</svg>
