<svg width="124" height="124" viewBox="0 0 124 124" fill="none" xmlns="http://www.w3.org/2000/svg">
<path fill-rule="evenodd" clip-rule="evenodd" d="M40.8908 57.9846L56.6174 69.5687C57.8421 70.4709 59.3539 70.8953 60.8693 70.7627L79.9027 69.0961L76.3514 81.6498C76.3482 81.6617 76.345 81.6735 76.3416 81.6854C75.2475 85.5531 65.623 86.2167 54.8447 83.1678C44.0663 80.1189 36.2157 74.5119 37.3098 70.6442C37.3109 70.6403 37.3119 70.6363 37.313 70.6323C37.3153 70.6244 37.3174 70.6165 37.3198 70.6087L40.8908 57.9846Z" fill="#23B5D3"/>
<path d="M93.1179 82.9483C94.0099 82.0364 95.0698 80.8238 95.9843 79.738C96.696 78.8924 98.0021 79.0312 98.2775 80.1013C98.7614 81.9755 98.8371 84.0698 98.7828 85.4356C98.7657 85.8694 98.5554 86.2857 98.1641 86.4749C96.5072 87.2779 94.5517 86.3839 93.1343 85.3327C92.3739 84.7689 92.4556 83.6248 93.1179 82.9483Z" fill="#A2EDFD"/>
<path fill-rule="evenodd" clip-rule="evenodd" d="M97.1863 79.9751C97.0122 79.9507 96.7712 80.0163 96.5817 80.2411C95.6634 81.332 94.5888 82.5619 93.6763 83.4946C93.4832 83.692 93.3781 83.9574 93.3736 84.1972C93.3697 84.4264 93.4531 84.5964 93.6001 84.7054C94.2631 85.1973 95.0227 85.6291 95.778 85.8492C96.5281 86.0678 97.2208 86.0644 97.8239 85.772C97.8916 85.7394 97.9934 85.6292 98.0024 85.405C98.0543 84.0822 97.9787 82.0706 97.5216 80.2967C97.4663 80.0817 97.3371 79.9961 97.1863 79.9751ZM97.4024 78.4276C98.1515 78.5321 98.8141 79.0512 99.0342 79.9063L98.2775 80.1014L97.4024 78.4276ZM97.4024 78.4276C96.6768 78.3264 95.9093 78.6143 95.3862 79.2349L97.4024 78.4276ZM99.0342 79.9063C99.5434 81.8803 99.6193 84.0574 99.5634 85.4664C99.538 86.1099 99.2193 86.8322 98.5052 87.1782C97.4514 87.6888 96.3367 87.6396 95.3407 87.3492C94.3498 87.0604 93.423 86.5196 92.6686 85.9603C91.4097 85.0264 91.679 83.3023 92.5588 82.4019C93.4311 81.5111 94.4764 80.316 95.3862 79.2349" fill="#23B5D3"/>
<path fill-rule="evenodd" clip-rule="evenodd" d="M96.3773 77.7029C96.7727 77.5308 97.2329 77.7121 97.4051 78.1078C97.5738 78.4959 97.5751 78.9964 97.5496 79.4054C97.5203 79.8561 97.4429 80.3709 97.3451 80.8829C97.149 81.9092 96.8574 82.9974 96.6478 83.6896C96.5229 84.1026 96.0866 84.336 95.6738 84.2111C95.2609 84.0862 95.0271 83.65 95.1528 83.2372C95.3504 82.5815 95.6273 81.5482 95.8108 80.5897C95.9021 80.109 95.9674 79.6656 95.9903 79.3064C96.0013 79.1267 96.0016 78.9822 95.9928 78.8726C95.9847 78.7692 95.971 78.7287 95.9711 78.7285C95.9711 78.7284 95.9717 78.7293 95.9721 78.7307C95.7998 78.335 95.9812 77.8748 96.3773 77.7029Z" fill="#23B5D3"/>
<path fill-rule="evenodd" clip-rule="evenodd" d="M101.402 63.4518C102.024 63.6279 102.386 64.2756 102.21 64.8984L98.6779 77.386C98.5017 78.0088 97.8537 78.3707 97.2313 78.1946C96.6081 78.0183 96.2465 77.3708 96.4226 76.748L99.9551 64.2604C100.131 63.6377 100.778 63.2755 101.402 63.4518Z" fill="#23B5D3"/>
<path d="M100.528 78.3881C100.043 80.1021 98.2609 81.0986 96.5469 80.6137C94.8329 80.1289 93.8367 78.3464 94.3216 76.6324C94.8064 74.9185 96.5887 73.922 98.3027 74.4069C100.017 74.8917 101.013 76.6742 100.528 78.3881ZM65.4023 37.6748L24.8579 41.8866C24.1086 41.9645 23.8476 42.9237 24.4542 43.3705L57.1145 67.4278C58.4069 68.3798 60.0023 68.8278 61.6015 68.6878L101.582 65.1871C102.33 65.1217 102.608 64.173 102.015 63.7138L70.1218 39.02C68.7802 37.9813 67.0899 37.4995 65.4023 37.6748Z" fill="#23B5D3"/>
<rect x="61.3402" y="64.5986" width="2.34375" height="30.9898" rx="1" transform="rotate(-94.5004 61.3402 64.5986)" fill="#A2EDFD"/>
<rect x="32.6876" y="44.8887" width="2.34375" height="11.6762" rx="1" transform="rotate(-55.0087 32.6876 44.8887)" fill="#A2EDFD"/>
</svg>
