<svg width="17" height="16" viewBox="0 0 17 16" fill="none" xmlns="http://www.w3.org/2000/svg">
<path d="M8.48199 1.00068C8.44426 1.00351 8.40777 1.01488 8.37506 1.03388L0.624274 5.53483C0.455885 5.63262 0.459377 5.87678 0.630133 5.97037L2.50118 6.99576V9.24965H2.00119C1.86237 9.24965 1.75022 9.36179 1.75022 9.50062V12.7203L1.27416 13.7691C1.25699 13.8026 1.24974 13.8467 1.24974 13.8717V14.7501C1.24974 15.0836 1.75022 15.0836 1.75022 14.7501V14.1236H2.50069V14.7501C2.50069 15.0837 3.00068 15.0837 3.00068 14.7501V14.1236H3.75066V14.7501C3.75066 15.0837 4.25065 15.0837 4.25065 14.7501V13.8717C4.25244 13.8351 4.24186 13.8012 4.22868 13.7711L3.75066 12.6993V9.50062C3.75066 9.36255 3.63971 9.24965 3.50164 9.24965H3.00117V7.26968L4.24674 7.95278V10.2496C4.24674 10.5687 4.39729 10.8637 4.63101 11.1061C4.86473 11.3484 5.18328 11.5494 5.56653 11.7169C6.33305 12.052 7.36039 12.2506 8.49859 12.2506C9.63679 12.2506 10.6666 12.052 11.4331 11.7169C11.8163 11.5494 12.1349 11.3484 12.3686 11.1061C12.6023 10.8637 12.7524 10.5687 12.7524 10.2496V7.95376L16.3714 5.97037C16.5422 5.87679 16.5432 5.63262 16.3748 5.53483L8.62603 1.03388C8.58248 1.00859 8.53222 0.996964 8.48199 1.00068V1.00068ZM8.50054 1.53925L15.7401 5.74332L8.50055 9.71449L3.47333 6.95767L7.81648 5.92447C7.93343 6.18706 8.19645 6.37271 8.50055 6.37271C8.91179 6.37271 9.25004 6.03446 9.25004 5.62321C9.25004 5.21196 8.91179 4.87419 8.50055 4.87419C8.16093 4.87419 7.87436 5.10572 7.78377 5.41764L2.82198 6.60025L1.25903 5.74332L8.50054 1.53925ZM8.50054 5.37418C8.64157 5.37418 8.74956 5.48218 8.74956 5.62321C8.74956 5.76424 8.64157 5.87418 8.50054 5.87418C8.35952 5.87418 8.24957 5.76424 8.24957 5.62321C8.24957 5.48218 8.35952 5.37418 8.50054 5.37418ZM4.74722 8.2267L8.38092 10.2184C8.45562 10.2593 8.54595 10.2593 8.62066 10.2184L12.2524 8.22768V10.2496C12.2524 10.4153 12.1791 10.5828 12.0088 10.7594C11.8384 10.936 11.5722 11.1106 11.2319 11.2594C10.5513 11.5569 9.57814 11.7501 8.49859 11.7501C7.41904 11.7501 6.44637 11.5569 5.76575 11.2594C5.42544 11.1106 5.16121 10.936 4.99087 10.7594C4.82052 10.5828 4.74722 10.4153 4.74722 10.2496L4.74722 8.2267ZM2.25021 9.74964H3.25019V12.4996H2.25021V9.74964ZM2.17258 12.9996H3.33905L3.6159 13.6232H1.88841L2.17258 12.9996Z" fill="#510404" stroke="#510404" stroke-width="0.8"/>
</svg>
