<svg width="78" height="64" viewBox="0 0 78 64" fill="none" xmlns="http://www.w3.org/2000/svg">
<path d="M30.268 3C31.0378 1.66666 32.9622 1.66667 33.7321 3L57.9808 45C58.7506 46.3333 57.7883 48 56.2487 48H7.75129C6.21169 48 5.24944 46.3333 6.01924 45L30.268 3Z" fill="#C7D4DB"/>
<path d="M56.7679 22C57.5377 20.6667 59.4622 20.6667 60.232 22L73.6554 45.25C74.4252 46.5833 73.463 48.25 71.9234 48.25H45.0766C43.537 48.25 42.5748 46.5833 43.3446 45.25L56.7679 22Z" fill="#C7D4DB"/>
<rect x="40.8999" y="15.8207" width="2.74552" height="25" rx="1.37276" transform="rotate(-30.5687 40.8999 15.8207)" fill="#EDEDED"/>
<circle cx="70" cy="8" r="5" fill="#C7D4DB"/>
</svg>
