<svg width="16" height="17" viewBox="0 0 16 17" fill="none" xmlns="http://www.w3.org/2000/svg">
<path d="M14.0596 8.82038C14.3431 8.44575 14.5 7.98675 14.5 7.50919C14.5 6.75151 14.0764 6.03432 13.3947 5.63438C13.2192 5.53144 13.0193 5.47726 12.8159 5.47744H8.76925L8.8705 3.40351C8.89413 2.90232 8.71694 2.42645 8.37269 2.06364C8.20375 1.88481 7.99992 1.74253 7.77382 1.64558C7.54772 1.54864 7.30413 1.4991 7.05813 1.50001C6.18063 1.50001 6.18288 2.55807 5.95 3.40351L3.72194 8.18419H3.71688V15.4067H11.6869C11.8422 15.4067 11.9941 15.3763 12.1341 15.3156C12.9374 14.973 13.4554 14.1883 13.4554 13.3176C13.4554 13.1049 13.4251 12.8957 13.3643 12.6932C13.6478 12.3186 13.8047 11.8596 13.8047 11.382C13.8047 11.1694 13.7744 10.9601 13.7136 10.7576C13.9971 10.383 14.1541 9.924 14.1541 9.44644C14.1507 9.23381 14.1203 9.02288 14.0596 8.82038ZM1 8.72419V14.8667C1 15.1654 1.24131 15.4067 1.54 15.4067H2.63688V8.18419H1.54C1.24131 8.18419 1 8.4255 1 8.72419Z" fill="#510404"/>
</svg>
