<svg width="16" height="17" viewBox="0 0 16 17" fill="none" xmlns="http://www.w3.org/2000/svg">
<path fill-rule="evenodd" clip-rule="evenodd" d="M11.2928 2.5C12.1868 2.5 13.0468 2.85333 13.6795 3.48733C14.3128 4.12 14.6668 4.97333 14.6668 5.86667V11.1333C14.6668 12.9933 13.1535 14.5 11.2928 14.5H4.70683C2.84616 14.5 1.3335 12.9933 1.3335 11.1333V5.86667C1.3335 4.00667 2.8395 2.5 4.70683 2.5H11.2928ZM12.3535 6.86L12.4068 6.80667C12.5662 6.61333 12.5662 6.33333 12.3995 6.14C12.3068 6.04067 12.1795 5.98 12.0468 5.96667C11.9068 5.95933 11.7735 6.00667 11.6728 6.1L8.66683 8.5C8.28016 8.82067 7.72616 8.82067 7.3335 8.5L4.3335 6.1C4.12616 5.94667 3.8395 5.96667 3.66683 6.14667C3.48683 6.32667 3.46683 6.61333 3.6195 6.81333L3.70683 6.9L6.74016 9.26667C7.1135 9.56 7.56616 9.72 8.04016 9.72C8.51283 9.72 8.9735 9.56 9.34616 9.26667L12.3535 6.86Z" fill="white"/>
</svg>
