<svg width="24" height="24" viewBox="0 0 24 24" fill="none" xmlns="http://www.w3.org/2000/svg">
<path d="M20.0526 5.84211H19.1053V4.89474C19.1053 4.64348 19.0055 4.40251 18.8278 4.22485C18.6501 4.04718 18.4092 3.94737 18.1579 3.94737C17.9066 3.94737 17.6657 4.04718 17.488 4.22485C17.3103 4.40251 17.2105 4.64348 17.2105 4.89474V5.84211H16.2632C16.0119 5.84211 15.7709 5.94192 15.5933 6.11958C15.4156 6.29725 15.3158 6.53822 15.3158 6.78948C15.3158 7.04073 15.4156 7.2817 15.5933 7.45937C15.7709 7.63703 16.0119 7.73684 16.2632 7.73684H17.2105V8.68421C17.2105 8.93547 17.3103 9.17644 17.488 9.3541C17.6657 9.53177 17.9066 9.63158 18.1579 9.63158C18.4092 9.63158 18.6501 9.53177 18.8278 9.3541C19.0055 9.17644 19.1053 8.93547 19.1053 8.68421V7.73684H20.0526C20.3039 7.73684 20.5449 7.63703 20.7225 7.45937C20.9002 7.2817 21 7.04073 21 6.78948C21 6.53822 20.9002 6.29725 20.7225 6.11958C20.5449 5.94192 20.3039 5.84211 20.0526 5.84211ZM9.63158 10.5789C10.3811 10.5789 11.1137 10.3567 11.7369 9.94031C12.3601 9.52391 12.8458 8.93208 13.1326 8.23964C13.4194 7.54721 13.4945 6.78527 13.3482 6.05019C13.202 5.3151 12.8411 4.63988 12.3111 4.10991C11.7812 3.57995 11.106 3.21903 10.3709 3.07282C9.63578 2.9266 8.87385 3.00164 8.18141 3.28846C7.48897 3.57527 6.89714 4.06098 6.48075 4.68416C6.06435 5.30733 5.84211 6.03999 5.84211 6.78948C5.84211 7.79451 6.24135 8.75837 6.95202 9.46904C7.66268 10.1797 8.62655 10.5789 9.63158 10.5789ZM9.63158 4.89474C10.0063 4.89474 10.3727 5.00586 10.6842 5.21406C10.9958 5.42226 11.2387 5.71817 11.3821 6.06439C11.5255 6.41061 11.563 6.79158 11.4899 7.15912C11.4168 7.52666 11.2363 7.86427 10.9714 8.12926C10.7064 8.39424 10.3688 8.5747 10.0012 8.64781C9.63368 8.72091 9.25271 8.68339 8.9065 8.53998C8.56028 8.39658 8.26436 8.15372 8.05616 7.84213C7.84797 7.53055 7.73684 7.16422 7.73684 6.78948C7.73684 6.28696 7.93647 5.80503 8.2918 5.44969C8.64713 5.09436 9.12906 4.89474 9.63158 4.89474ZM9.63158 12.4737C7.87278 12.4737 6.18601 13.1724 4.94234 14.416C3.69868 15.6597 3 17.3465 3 19.1053C3 19.3565 3.09981 19.5975 3.27748 19.7752C3.45514 19.9528 3.69611 20.0526 3.94737 20.0526C4.19863 20.0526 4.43959 19.9528 4.61726 19.7752C4.79492 19.5975 4.89474 19.3565 4.89474 19.1053C4.89474 17.849 5.3938 16.6441 6.28213 15.7558C7.17046 14.8675 8.37529 14.3684 9.63158 14.3684C10.8879 14.3684 12.0927 14.8675 12.981 15.7558C13.8694 16.6441 14.3684 17.849 14.3684 19.1053C14.3684 19.3565 14.4682 19.5975 14.6459 19.7752C14.8236 19.9528 15.0645 20.0526 15.3158 20.0526C15.567 20.0526 15.808 19.9528 15.9857 19.7752C16.1633 19.5975 16.2632 19.3565 16.2632 19.1053C16.2632 17.3465 15.5645 15.6597 14.3208 14.416C13.0772 13.1724 11.3904 12.4737 9.63158 12.4737Z" fill="#083652"/>
</svg>
