<svg width="24" height="24" viewBox="0 0 24 24" fill="none" xmlns="http://www.w3.org/2000/svg">
<path d="M20.8876 12.0082C20.8938 11.5304 20.635 11.0912 20.2147 10.8607L10.4201 5.4793C9.98137 5.23135 9.46422 5.26182 9.05084 5.5441C8.62987 5.83113 8.4144 6.51443 8.53208 7.00794L9.44644 10.8388C9.54031 11.2316 9.89188 11.5082 10.2964 11.5065L15.747 11.4896C16.0261 11.484 16.2525 11.7103 16.2469 11.9895C16.2461 12.2638 16.023 12.4869 15.7439 12.4925L10.2881 12.5051C9.88358 12.5059 9.53029 12.7837 9.43399 13.1772L8.48729 17.0232C8.37234 17.4777 8.50339 17.9315 8.82408 18.2522C8.8618 18.2899 8.90425 18.3323 8.94672 18.3653C9.36202 18.6857 9.90591 18.7266 10.3703 18.4792L20.1981 13.1504C20.6198 12.9267 20.8814 12.486 20.8876 12.0082" fill="white"/>
</svg>
