<svg width="24" height="24" viewBox="0 0 24 24" fill="none" xmlns="http://www.w3.org/2000/svg">
<path d="M12 6.47998C8.02562 6.47998 4.31042 8.58718 2.23682 12C4.31042 15.4128 8.02562 17.52 12 17.52C15.9744 17.52 19.6896 15.4128 21.7632 12C19.6896 8.58718 15.9744 6.47998 12 6.47998ZM12 16.08C9.75122 16.08 7.92002 14.2488 7.92002 12C7.92002 9.75118 9.75122 7.91998 12 7.91998C14.2488 7.91998 16.08 9.75118 16.08 12C16.08 14.2488 14.2488 16.08 12 16.08ZM12 8.87998C10.2792 8.87998 8.88002 10.2792 8.88002 12C8.88002 13.7208 10.2792 15.12 12 15.12C13.7208 15.12 15.12 13.7208 15.12 12C15.12 10.2792 13.7208 8.87998 12 8.87998ZM12 10.8C11.712 10.8 11.4528 10.9056 11.244 11.076L11.076 11.244C10.9056 11.4528 10.8 11.712 10.8 12C10.8 12.264 10.584 12.48 10.32 12.48C10.056 12.48 9.84002 12.264 9.84002 12C9.84002 10.8096 10.8096 9.83998 12 9.83998C12.264 9.83998 12.48 10.056 12.48 10.32C12.48 10.584 12.264 10.8 12 10.8Z" fill="#083652"/>
</svg>
